Coordinates
version=1
nRows=13
nColumns=36
inDegrees=yes

Units are S.I. units (second, meters, Newtons, ...)
If the header above contains a line with 'inDegrees', this indicates whether rotational values are in degrees (yes) or radians (no).

endheader
time	pelvis_tilt	pelvis_list	pelvis_rotation	pelvis_tx	pelvis_ty	pelvis_tz	hip_flexion_r	hip_adduction_r	hip_rotation_r	knee_angle_r	knee_angle_r_beta	ankle_angle_r	subtalar_angle_r	mtp_angle_r	hip_flexion_l	hip_adduction_l	hip_rotation_l	knee_angle_l	knee_angle_l_beta	ankle_angle_l	subtalar_angle_l	mtp_angle_l	lumbar_extension	lumbar_bending	lumbar_rotation	arm_flex_r	arm_add_r	arm_rot_r	elbow_flex_r	pro_sup_r	arm_flex_l	arm_add_l	arm_rot_l	elbow_flex_l	pro_sup_l
      1.91666670	     -3.70957412	     -0.32843611	      2.89950626	      0.32945348	      0.93093129	     -0.06988120	      0.63202606	     -6.65934606	     -1.66896254	      0.75891965	      0.01324565	      3.40710146	     -5.07533695	     -7.49999987	      3.73624108	     -4.37073293	      4.39534415	      0.43800558	      0.00764464	      2.67132660	     -2.95950427	     -7.49999987	      1.03339072	     -2.65524503	    -12.13940048	    144.61303018	     -7.50117857	     94.62608071	      3.63939326	     38.54247603	     39.56056207	     -7.76083011	     -5.69660481	     24.88056448	     64.79752033
      1.93333330	     -3.88621412	     -0.36507520	      2.88639930	      0.32559242	      0.93072742	     -0.06490572	      0.90127357	     -6.57376460	     -1.71794512	      0.79439964	      0.01386489	      3.47893438	     -4.92111281	     -7.49999987	      3.97467391	     -4.46431115	      4.49492434	      0.43086339	      0.00751998	      2.74084054	     -2.90141776	     -7.49999987	      1.14715598	     -2.66691502	    -12.02640563	    145.92599360	     -7.81051899	     94.92401567	      4.18767550	     38.57912300	     39.87638555	     -7.81786497	     -5.67443925	     24.61558337	     64.94892124
      1.95000000	     -3.89704554	     -0.36248641	      2.85526278	      0.32567965	      0.93384071	     -0.06496310	      0.98963066	     -6.50563564	     -1.64537394	      0.80034287	      0.01396862	      3.39013102	     -4.84474912	     -7.49999987	      4.04561776	     -4.53771463	      4.46868386	      0.42271289	      0.00737773	      2.75754040	     -2.59487682	     -7.49999987	      1.02336206	     -2.81289470	    -11.84700040	    147.27341765	     -8.53288617	     94.49783571	      5.48156563	     39.27803379	     40.22772540	     -7.81550074	     -5.78989986	     24.31258892	     65.13006289
      1.96666670	     -4.03221116	     -0.35502017	      2.87607314	      0.32581611	      0.93365280	     -0.06474091	      1.22382910	     -6.46449925	     -1.69059109	      0.82901131	      0.01446898	      3.43292190	     -4.71031527	     -7.49999987	      4.27709535	     -4.58405197	      4.57667338	      0.42022988	      0.00733440	      2.70957411	     -2.59990316	     -7.49999987	      1.13958293	     -2.87288813	    -12.13091865	    148.28139403	     -8.26751014	     94.57998627	      5.74356377	     39.32243425	     40.38497978	     -7.99884929	     -5.80614993	     24.03100653	     65.24910002
      1.98333330	     -4.09124568	     -0.28097561	      2.92529224	      0.32988392	      0.93606274	     -0.06985932	      1.23684129	     -6.57740429	     -1.87033883	      0.79350277	      0.01384924	      3.28773314	     -4.55725159	     -7.49999987	      4.40864107	     -4.50279596	      4.65588368	      0.40650956	      0.00709493	      2.46147772	     -2.49303735	     -7.49999987	      1.26912605	     -2.94308334	    -12.38145420	    149.20684945	     -8.07293904	     94.63274496	      6.01812586	     39.35713593	     40.23808605	     -7.99062899	     -5.82802959	     23.82714004	     65.33893968
      2.00000000	     -4.07900304	     -0.26345632	      2.95055074	      0.32989328	      0.93581624	     -0.06964321	      1.21673607	     -6.67885643	     -2.29633934	      0.81672237	      0.01425449	      3.28844335	     -4.08710905	     -7.49999987	      4.42116506	     -4.45533247	      4.78052437	      0.40332098	      0.00703928	      2.38497227	     -2.66707741	     -7.49999987	      1.31883149	     -2.93783830	    -12.35024709	    150.38601551	     -8.28192429	     93.79861324	      7.03075797	     41.19652916	     40.27038074	     -7.69350053	     -6.36854272	     23.60581148	     65.88574378
      2.01666670	     -4.16127142	     -0.21836673	      3.01274235	      0.32988273	      0.93538308	     -0.06972055	      1.30259175	     -6.77534793	     -2.54942974	      0.82232802	      0.01435233	      3.26989630	     -3.78618531	     -7.49999987	      4.53733130	     -4.37719006	      4.87577193	      0.39812571	      0.00694860	      2.23034674	     -2.76974735	     -7.49999987	      1.53209925	     -2.96972480	    -12.51614077	    151.10952294	     -8.16025549	     94.48177619	      6.91209869	     42.23064665	     40.32978692	     -7.54654045	     -6.67540435	     23.10111906	     67.10727185
      2.03333330	     -4.09029176	     -0.13783667	      3.10518795	      0.32981478	      0.93531529	     -0.06949127	      1.17745312	     -6.92372160	     -2.86866962	      0.83010092	      0.01448799	      3.12137021	     -3.62487059	     -7.49999987	      4.46511119	     -4.27319382	      4.90049963	      0.39516991	      0.00689702	      2.15889918	     -2.57010832	     -7.49999987	      1.41018138	     -3.11808467	    -12.58719413	    152.14519007	     -8.67511137	     93.12065362	      7.50193758	     44.22719765	     40.40997368	     -7.24655185	     -7.64206869	     23.05959710	     67.02880833
      2.05000000	     -4.09066879	     -0.08940318	      3.18176897	      0.32989125	      0.93515056	     -0.06956455	      1.14435726	     -7.01967581	     -3.07124426	      0.84302568	      0.01471357	      2.99469547	     -3.64308542	     -7.49999987	      4.46103276	     -4.20636830	      4.96329970	      0.39467388	      0.00688836	      2.04609868	     -2.62510749	     -7.49999987	      1.41313537	     -3.14149780	    -12.86070584	    153.56496946	     -8.16610175	    100.98933146	      5.65685842	     37.78948895	     40.48001521	     -7.27142845	     -9.45076815	     23.04479433	     74.16741443
      2.06666670	     -3.99213764	     -0.04296964	      3.23654482	      0.32981044	      0.93517100	     -0.06930817	      0.99490620	     -7.08346091	     -3.10743693	      0.83650976	      0.01459985	      2.85364144	     -3.86598082	     -7.49999987	      4.34588714	     -4.16444928	      4.91811806	      0.39240966	      0.00684884	      2.07140548	     -2.42768904	     -7.49999987	      1.18912333	     -3.21737476	    -13.04506767	    155.09871961	     -8.28270855	    100.24482885	      5.58324849	     38.62485557	     40.58976299	     -7.39491071	     -9.64484202	     23.20966799	     73.54513072
      2.08333330	     -3.90288609	     -0.02323451	      3.29192460	      0.32975153	      0.93507374	     -0.06950927	      0.87255554	     -7.12164400	     -3.33080610	      0.86206431	      0.01504586	      2.99834476	     -3.65421011	     -7.49999987	      4.25218516	     -4.14418653	      5.07620554	      0.38873599	      0.00678472	      1.99326546	     -2.67776622	     -7.49999987	      0.95617081	     -3.23596692	    -12.80768499	    156.72613125	     -8.26535495	     99.21614946	      5.43248731	     39.15947502	     41.13002272	     -7.08354794	     -9.75281066	     22.86105695	     73.18491973
      2.10000000	     -3.94488322	     -0.02821576	      3.28849940	      0.32970794	      0.93512497	     -0.06924115	      0.92112926	     -7.12716846	     -3.38968873	      0.89613678	      0.01564054	      3.04577861	     -3.66431717	     -7.49999987	      4.29007657	     -4.15699247	      5.11571631	      0.39122563	      0.00682818	      2.01312421	     -2.72702725	     -7.49999987	      0.93274908	     -3.21580310	    -12.54368589	    158.00282352	     -8.00206698	     98.54850896	      4.72387527	     39.39476596	     41.58032369	     -6.82383029	     -9.76663186	     22.37567679	     73.07655660
      2.11666670	     -4.05705699	     -0.06865401	      3.31933613	      0.32986870	      0.93483276	     -0.06943277	      1.03689891	     -7.09224207	     -3.53581821	      0.94075883	      0.01641934	      3.14146848	     -3.49635754	     -7.49999987	      4.40097168	     -4.20548447	      5.22460175	      0.39647165	      0.00691974	      2.04843074	     -2.75202439	     -7.49999987	      0.90566074	     -3.24659667	    -12.15183793	    159.13419726	     -8.08025749	     98.71111378	      4.28772513	     38.37545990	     42.36301943	     -6.68378399	     -7.78363384	     21.37656591	     74.45691088
